<svg width="414" height="74" viewBox="0 0 414 74" fill="none" xmlns="http://www.w3.org/2000/svg">
<path d="M-80.0234 72H-82.0234V74H-80.0234V72ZM-80.0234 1.54102V-0.458984H-82.0234V1.54102H-80.0234ZM-33.6367 6.27734L-34.9004 7.82758L-33.6367 6.27734ZM-31.6348 29.2266L-33.1389 27.9083L-33.1473 27.918L-31.6348 29.2266ZM-41.0586 34.4023L-41.3486 32.4235L-43.0586 32.6741V34.4023H-41.0586ZM-41.0586 34.793H-43.0586V36.6498L-41.2068 36.7875L-41.0586 34.793ZM-29.1445 40.1152L-30.5732 41.5148L-29.1445 40.1152ZM-65.2773 12.5273V10.5273H-67.2773V12.5273H-65.2773ZM-65.2773 30.8379H-67.2773V32.8379H-65.2773V30.8379ZM-45.5508 28.3965L-44.3431 29.9907L-44.3354 29.9849L-44.3279 29.9791L-45.5508 28.3965ZM-45.1602 14.8711L-46.4353 16.4119L-46.4273 16.4185L-46.4193 16.425L-45.1602 14.8711ZM-65.2773 61.0137H-67.2773V63.0137H-65.2773V61.0137ZM-42.8652 58.377L-41.6215 59.9432L-41.6186 59.9409L-42.8652 58.377ZM-42.9629 43.1426L-44.1702 44.7371L-44.1593 44.7453L-42.9629 43.1426ZM-65.2773 40.5547V38.5547H-67.2773V40.5547H-65.2773ZM-48.8223 70H-80.0234V74H-48.8223V70ZM-78.0234 72V1.54102H-82.0234V72H-78.0234ZM-80.0234 3.54102H-49.3594V-0.458984H-80.0234V3.54102ZM-49.3594 3.54102C-43.0624 3.54102 -38.3164 5.04304 -34.9004 7.82758L-32.3731 4.72711C-36.7044 1.19654 -42.4402 -0.458984 -49.3594 -0.458984V3.54102ZM-34.9004 7.82758C-31.5342 10.5714 -29.8262 14.2608 -29.8262 19.1191H-25.8262C-25.8262 13.1702 -27.9918 8.29839 -32.3731 4.72711L-34.9004 7.82758ZM-29.8262 19.1191C-29.8262 22.4737 -30.9184 25.3748 -33.1389 27.9084L-30.1307 30.5448C-27.273 27.2841 -25.8262 23.4468 -25.8262 19.1191H-29.8262ZM-33.1473 27.918C-35.3412 30.4538 -38.0493 31.94 -41.3486 32.4235L-40.7686 36.3812C-36.5159 35.758 -32.9414 33.7936 -30.1223 30.5351L-33.1473 27.918ZM-43.0586 34.4023V34.793H-39.0586V34.4023H-43.0586ZM-41.2068 36.7875C-36.8311 37.1127 -33.329 38.7017 -30.5732 41.5148L-27.7158 38.7157C-31.2101 35.1486 -35.6506 33.1894 -40.9104 32.7985L-41.2068 36.7875ZM-30.5732 41.5148C-27.8285 44.3167 -26.457 47.7144 -26.457 51.834H-22.457C-22.457 46.7087 -24.2106 42.294 -27.7158 38.7157L-30.5732 41.5148ZM-26.457 51.834C-26.457 57.5218 -28.4211 61.8467 -32.2758 65.0399L-29.7242 68.1203C-24.855 64.0869 -22.457 58.581 -22.457 51.834H-26.457ZM-32.2758 65.0399C-36.1763 68.2708 -41.6149 70 -48.8223 70V74C-40.9906 74 -34.5477 72.1159 -29.7242 68.1203L-32.2758 65.0399ZM-67.2773 12.5273V30.8379H-63.2773V12.5273H-67.2773ZM-65.2773 32.8379H-54.6816V28.8379H-65.2773V32.8379ZM-54.6816 32.8379C-50.5002 32.8379 -46.9668 31.9784 -44.3431 29.9907L-46.7585 26.8023C-48.4316 28.0698 -50.9855 28.8379 -54.6816 28.8379V32.8379ZM-44.3279 29.9791C-41.6342 27.8976 -40.3281 24.9551 -40.3281 21.4141H-44.3281C-44.3281 23.8626 -45.1705 25.5751 -46.7737 26.8139L-44.3279 29.9791ZM-40.3281 21.4141C-40.3281 18.0905 -41.464 15.292 -43.901 13.3172L-46.4193 16.425C-45.0803 17.5101 -44.3281 19.0736 -44.3281 21.4141H-40.3281ZM-43.885 13.3303C-46.2534 11.3703 -49.4391 10.5273 -53.168 10.5273V14.5273C-49.9958 14.5273 -47.8429 15.2469 -46.4353 16.4119L-43.885 13.3303ZM-53.168 10.5273H-65.2773V14.5273H-53.168V10.5273ZM-65.2773 63.0137H-52.582V59.0137H-65.2773V63.0137ZM-52.582 63.0137C-48.0854 63.0137 -44.3289 62.0932 -41.6215 59.9432L-44.109 56.8107C-45.8286 58.1763 -48.55 59.0137 -52.582 59.0137V63.0137ZM-41.6186 59.9409C-38.8138 57.7051 -37.4961 54.5096 -37.4961 50.6621H-41.4961C-41.4961 53.5204 -42.4245 55.468 -44.1119 56.813L-41.6186 59.9409ZM-37.4961 50.6621C-37.4961 46.8442 -38.8738 43.6992 -41.7665 41.5399L-44.1593 44.7453C-42.4296 46.0364 -41.4961 47.9045 -41.4961 50.6621H-37.4961ZM-41.7556 41.5481C-44.522 39.4535 -48.3427 38.5547 -52.9238 38.5547V42.5547C-48.781 42.5547 -45.9611 43.3811 -44.1702 44.7371L-41.7556 41.5481ZM-52.9238 38.5547H-65.2773V42.5547H-52.9238V38.5547ZM-67.2773 40.5547V61.0137H-63.2773V40.5547H-67.2773ZM-1.3125 1.54102H0.6875V-0.458984H-1.3125V1.54102ZM2.54492 56.5703L1.09623 57.9492L1.10474 57.9581L1.11336 57.967L2.54492 56.5703ZM24.3223 56.5703L22.8823 55.1824L22.882 55.1827L24.3223 56.5703ZM28.2285 1.54102V-0.458984H26.2285V1.54102H28.2285ZM42.9746 1.54102H44.9746V-0.458984H42.9746V1.54102ZM34.918 66.043L36.2529 67.5323L36.2534 67.5318L34.918 66.043ZM-8.05078 66.043L-9.39074 67.5278L-9.3812 67.5363L-8.05078 66.043ZM-16.0586 1.54102V-0.458984H-18.0586V1.54102H-16.0586ZM-3.3125 1.54102V45.6328H0.6875V1.54102H-3.3125ZM-3.3125 45.6328C-3.3125 50.6113 -1.90682 54.7941 1.09623 57.9492L3.99361 55.1914C1.85344 52.9429 0.6875 49.834 0.6875 45.6328H-3.3125ZM1.11336 57.967C4.18527 61.1157 8.40253 62.5742 13.4824 62.5742V58.5742C9.18731 58.5742 6.11291 57.3635 3.97649 55.1737L1.11336 57.967ZM13.4824 62.5742C18.5332 62.5742 22.7226 61.1133 25.7626 57.9579L22.882 55.1827C20.7787 57.3658 17.7415 58.5742 13.4824 58.5742V62.5742ZM25.7623 57.9583C28.8024 54.8041 30.2285 50.6182 30.2285 45.6328H26.2285C26.2285 49.8272 25.0505 52.9328 22.8823 55.1824L25.7623 57.9583ZM30.2285 45.6328V1.54102H26.2285V45.6328H30.2285ZM28.2285 3.54102H42.9746V-0.458984H28.2285V3.54102ZM40.9746 1.54102V47.0977H44.9746V1.54102H40.9746ZM40.9746 47.0977C40.9746 54.3948 38.4929 60.1497 33.5825 64.5541L36.2534 67.5318C42.0852 62.3008 44.9746 55.4255 44.9746 47.0977H40.9746ZM33.5831 64.5537C28.6963 68.9339 22.0689 71.2207 13.4824 71.2207V75.2207C22.7996 75.2207 30.4626 72.7224 36.2529 67.5323L33.5831 64.5537ZM13.4824 71.2207C4.86181 71.2207 -1.80037 68.9329 -6.72037 64.5497L-9.3812 67.5363C-3.55901 72.7233 4.13428 75.2207 13.4824 75.2207V71.2207ZM-6.71085 64.5582C-11.5901 60.155 -14.0586 54.399 -14.0586 47.0977H-18.0586C-18.0586 55.4213 -15.1885 62.2956 -9.39071 67.5278L-6.71085 64.5582ZM-14.0586 47.0977V1.54102H-18.0586V47.0977H-14.0586ZM-16.0586 3.54102H-1.3125V-0.458984H-16.0586V3.54102ZM100.299 59.793H102.299V57.793H100.299V59.793ZM100.299 72V74H102.299V72H100.299ZM54.7422 72H52.7422V74H54.7422V72ZM54.7422 1.54102V-0.458984H52.7422V1.54102H54.7422ZM69.4883 1.54102H71.4883V-0.458984H69.4883V1.54102ZM69.4883 59.793H67.4883V61.793H69.4883V59.793ZM98.2988 59.793V72H102.299V59.793H98.2988ZM100.299 70H54.7422V74H100.299V70ZM56.7422 72V1.54102H52.7422V72H56.7422ZM54.7422 3.54102H69.4883V-0.458984H54.7422V3.54102ZM67.4883 1.54102V59.793H71.4883V1.54102H67.4883ZM69.4883 61.793H100.299V57.793H69.4883V61.793ZM109.039 72H107.039V74H109.039V72ZM109.039 1.54102V-0.458984H107.039V1.54102H109.039ZM155.426 6.27734L154.162 7.82758L155.426 6.27734ZM157.428 29.2266L155.924 27.9083L155.915 27.918L157.428 29.2266ZM148.004 34.4023L147.714 32.4235L146.004 32.6741V34.4023H148.004ZM148.004 34.793H146.004V36.6498L147.856 36.7875L148.004 34.793ZM159.918 40.1152L158.489 41.5148L159.918 40.1152ZM123.785 12.5273V10.5273H121.785V12.5273H123.785ZM123.785 30.8379H121.785V32.8379H123.785V30.8379ZM143.512 28.3965L144.719 29.9907L144.727 29.9849L144.735 29.9791L143.512 28.3965ZM143.902 14.8711L142.627 16.4119L142.635 16.4185L142.643 16.425L143.902 14.8711ZM123.785 61.0137H121.785V63.0137H123.785V61.0137ZM146.197 58.377L147.441 59.9432L147.444 59.9409L146.197 58.377ZM146.1 43.1426L144.892 44.7371L144.903 44.7453L146.1 43.1426ZM123.785 40.5547V38.5547H121.785V40.5547H123.785ZM140.24 70H109.039V74H140.24V70ZM111.039 72V1.54102H107.039V72H111.039ZM109.039 3.54102H139.703V-0.458984H109.039V3.54102ZM139.703 3.54102C146 3.54102 150.746 5.04304 154.162 7.82758L156.689 4.72711C152.358 1.19654 146.622 -0.458984 139.703 -0.458984V3.54102ZM154.162 7.82758C157.528 10.5714 159.236 14.2608 159.236 19.1191H163.236C163.236 13.1702 161.071 8.29839 156.689 4.72711L154.162 7.82758ZM159.236 19.1191C159.236 22.4737 158.144 25.3748 155.924 27.9084L158.932 30.5448C161.79 27.2841 163.236 23.4468 163.236 19.1191H159.236ZM155.915 27.918C153.721 30.4538 151.013 31.94 147.714 32.4235L148.294 36.3812C152.547 35.758 156.121 33.7936 158.94 30.5351L155.915 27.918ZM146.004 34.4023V34.793H150.004V34.4023H146.004ZM147.856 36.7875C152.231 37.1127 155.734 38.7017 158.489 41.5148L161.347 38.7157C157.852 35.1486 153.412 33.1894 148.152 32.7985L147.856 36.7875ZM158.489 41.5148C161.234 44.3167 162.605 47.7144 162.605 51.834H166.605C166.605 46.7087 164.852 42.294 161.347 38.7157L158.489 41.5148ZM162.605 51.834C162.605 57.5218 160.641 61.8467 156.787 65.0399L159.338 68.1203C164.208 64.0869 166.605 58.581 166.605 51.834H162.605ZM156.787 65.0399C152.886 68.2708 147.448 70 140.24 70V74C148.072 74 154.515 72.1159 159.338 68.1203L156.787 65.0399ZM121.785 12.5273V30.8379H125.785V12.5273H121.785ZM123.785 32.8379H134.381V28.8379H123.785V32.8379ZM134.381 32.8379C138.562 32.8379 142.096 31.9784 144.719 29.9907L142.304 26.8023C140.631 28.0698 138.077 28.8379 134.381 28.8379V32.8379ZM144.735 29.9791C147.428 27.8976 148.734 24.9551 148.734 21.4141H144.734C144.734 23.8626 143.892 25.5751 142.289 26.8139L144.735 29.9791ZM148.734 21.4141C148.734 18.0905 147.598 15.292 145.162 13.3172L142.643 16.425C143.982 17.5101 144.734 19.0736 144.734 21.4141H148.734ZM145.177 13.3303C142.809 11.3703 139.623 10.5273 135.895 10.5273V14.5273C139.067 14.5273 141.22 15.2469 142.627 16.4119L145.177 13.3303ZM135.895 10.5273H123.785V14.5273H135.895V10.5273ZM123.785 63.0137H136.48V59.0137H123.785V63.0137ZM136.48 63.0137C140.977 63.0137 144.734 62.0932 147.441 59.9432L144.954 56.8107C143.234 58.1763 140.512 59.0137 136.48 59.0137V63.0137ZM147.444 59.9409C150.249 57.7051 151.566 54.5096 151.566 50.6621H147.566C147.566 53.5204 146.638 55.468 144.951 56.813L147.444 59.9409ZM151.566 50.6621C151.566 46.8442 150.189 43.6992 147.296 41.5399L144.903 44.7453C146.633 46.0364 147.566 47.9045 147.566 50.6621H151.566ZM147.307 41.5481C144.541 39.4535 140.72 38.5547 136.139 38.5547V42.5547C140.282 42.5547 143.101 43.3811 144.892 44.7371L147.307 41.5481ZM136.139 38.5547H123.785V42.5547H136.139V38.5547ZM121.785 40.5547V61.0137H125.785V40.5547H121.785ZM219.146 72L217.238 72.5997L217.679 74H219.146V72ZM213.775 54.9102L215.683 54.3105L215.243 52.9102H213.775V54.9102ZM189.02 54.9102V52.9102H187.552L187.112 54.3105L189.02 54.9102ZM183.648 72V74H185.116L185.556 72.5997L183.648 72ZM168.512 72L166.622 71.344L165.7 74H168.512V72ZM192.975 1.54102V-0.458984H191.552L191.085 0.88504L192.975 1.54102ZM210.309 1.54102L212.198 0.883873L211.73 -0.458984H210.309V1.54102ZM234.82 72V74H237.634L236.709 71.3429L234.82 72ZM201.227 15.0176V13.0176H199.757L199.318 14.4201L201.227 15.0176ZM192.193 43.875L190.285 43.2775L189.472 45.875H192.193V43.875ZM210.602 43.875V45.875H213.323L212.51 43.2775L210.602 43.875ZM201.568 15.0176L203.477 14.4201L203.038 13.0176H201.568V15.0176ZM221.054 71.4003L215.683 54.3105L211.867 55.5098L217.238 72.5997L221.054 71.4003ZM213.775 52.9102H189.02V56.9102H213.775V52.9102ZM187.112 54.3105L181.74 71.4003L185.556 72.5997L190.928 55.5098L187.112 54.3105ZM183.648 70H168.512V74H183.648V70ZM170.401 72.656L194.864 2.19699L191.085 0.88504L166.622 71.344L170.401 72.656ZM192.975 3.54102H210.309V-0.458984H192.975V3.54102ZM208.42 2.19816L232.931 72.6571L236.709 71.3429L212.198 0.883873L208.42 2.19816ZM234.82 70H219.146V74H234.82V70ZM199.318 14.4201L190.285 43.2775L194.102 44.4725L203.135 15.615L199.318 14.4201ZM192.193 45.875H210.602V41.875H192.193V45.875ZM212.51 43.2775L203.477 14.4201L199.66 15.615L208.693 44.4725L212.51 43.2775ZM201.568 13.0176H201.227V17.0176H201.568V13.0176ZM237.945 51.9316V49.9316H235.875L235.947 52.0006L237.945 51.9316ZM252.154 51.9316L254.142 51.7058L253.94 49.9316H252.154V51.9316ZM256.695 58.9141L255.591 60.5812L255.602 60.5889L255.614 60.5964L256.695 58.9141ZM276.227 59.0605L277.351 60.7144L277.356 60.7112L276.227 59.0605ZM277.203 47.0977L278.421 45.5114L277.203 47.0977ZM268.072 43.582L268.505 41.6293L268.498 41.628L268.072 43.582ZM258.893 41.5801L259.319 39.626L259.311 39.6244L258.893 41.5801ZM247.027 6.27734L245.79 4.70576L245.785 4.70967L247.027 6.27734ZM285.943 6.13086L284.695 7.69363L284.702 7.69874L285.943 6.13086ZM293.414 21.5117V23.5117H295.455L295.414 21.4711L293.414 21.5117ZM279.596 21.5117L277.602 21.6651L277.744 23.5117H279.596V21.5117ZM275.641 14.5293L274.466 16.1477L274.478 16.1568L274.491 16.1657L275.641 14.5293ZM257.672 14.334L256.514 12.7033L256.503 12.7114L257.672 14.334ZM257.037 25.8574L255.842 27.4609L255.849 27.4661L255.856 27.4711L257.037 25.8574ZM265.875 29.2754L265.423 31.2236L265.442 31.2281L265.461 31.2321L265.875 29.2754ZM274.42 31.082L274.835 29.1255L274.834 29.1253L274.42 31.082ZM289.85 38.1133L288.443 39.5347L288.45 39.5419L289.85 38.1133ZM286.969 67.2148L288.197 68.793L288.204 68.7882L286.969 67.2148ZM245.807 67.5566L244.597 69.1492L244.603 69.1535L244.608 69.1579L245.807 67.5566ZM237.945 53.9316H252.154V49.9316H237.945V53.9316ZM250.167 52.1575C250.568 55.6866 252.465 58.51 255.591 60.5812L257.8 57.2469C255.522 55.7374 254.392 53.9058 254.142 51.7058L250.167 52.1575ZM255.614 60.5964C258.733 62.6018 262.465 63.5508 266.705 63.5508V59.5508C263.068 59.5508 260.126 58.7419 257.777 57.2317L255.614 60.5964ZM266.705 63.5508C270.885 63.5508 274.486 62.6625 277.351 60.7144L275.102 57.4067C273.084 58.7789 270.338 59.5508 266.705 59.5508V63.5508ZM277.356 60.7112C280.279 58.7109 281.938 55.9873 281.938 52.6152H277.938C277.938 54.4515 277.122 56.0248 275.097 57.4099L277.356 60.7112ZM281.938 52.6152C281.938 49.7088 280.732 47.2858 278.421 45.5114L275.985 48.684C277.32 49.709 277.938 50.9644 277.938 52.6152H281.938ZM278.421 45.5114C276.24 43.8368 272.843 42.5896 268.505 41.6293L267.64 45.5348C271.831 46.4624 274.52 47.559 275.985 48.684L278.421 45.5114ZM268.498 41.628L259.319 39.626L258.466 43.5341L267.646 45.5361L268.498 41.628ZM259.311 39.6244C253.073 38.2888 248.64 36.0866 245.779 33.1819C242.964 30.3242 241.508 26.624 241.508 21.9023H237.508C237.508 27.5323 239.283 32.2875 242.929 35.989C246.529 39.6436 251.789 42.1044 258.474 43.5358L259.311 39.6244ZM241.508 21.9023C241.508 16.0624 243.739 11.4336 248.269 7.84502L245.785 4.70967C240.289 9.06382 237.508 14.8517 237.508 21.9023H241.508ZM248.264 7.84892C252.882 4.21461 258.893 2.32031 266.461 2.32031V-1.67969C258.209 -1.67969 251.264 0.397369 245.79 4.70576L248.264 7.84892ZM266.461 2.32031C274.287 2.32031 280.296 4.18044 284.695 7.69362L287.191 4.5681C281.89 0.333879 274.911 -1.67969 266.461 -1.67969V2.32031ZM284.702 7.69874C289.065 11.154 291.296 15.711 291.414 21.5523L295.414 21.4711C295.272 14.4869 292.523 8.79004 287.185 4.56298L284.702 7.69874ZM293.414 19.5117H279.596V23.5117H293.414V19.5117ZM281.59 21.3583C281.317 17.8068 279.693 14.9327 276.791 12.8929L274.491 16.1657C276.406 17.5113 277.419 19.2922 277.602 21.6651L281.59 21.3583ZM276.816 12.9109C274.017 10.879 270.531 9.94141 266.51 9.94141V13.9414C269.911 13.9414 272.512 14.7291 274.466 16.1477L276.816 12.9109ZM266.51 9.94141C262.582 9.94141 259.192 10.8011 256.514 12.7033L258.83 15.9646C260.643 14.6767 263.146 13.9414 266.51 13.9414V9.94141ZM256.503 12.7114C253.797 14.6612 252.352 17.3504 252.352 20.6328H256.352C256.352 18.7069 257.12 17.1969 258.841 15.9566L256.503 12.7114ZM252.352 20.6328C252.352 23.4415 253.568 25.7663 255.842 27.4609L258.232 24.2539C256.925 23.2793 256.352 22.121 256.352 20.6328H252.352ZM255.856 27.4711C258.01 29.0488 261.276 30.2616 265.423 31.2236L266.327 27.3271C262.336 26.4012 259.71 25.3353 258.219 24.2437L255.856 27.4711ZM265.461 31.2321L274.006 33.0388L274.834 29.1253L266.289 27.3186L265.461 31.2321ZM274.005 33.0386C280.897 34.4994 285.61 36.7304 288.443 39.5347L291.257 36.6919C287.644 33.116 282.071 30.6594 274.835 29.1255L274.005 33.0386ZM288.45 39.5419C291.216 42.2525 292.684 45.9625 292.684 50.9062H296.684C296.684 45.1079 294.928 40.2891 291.249 36.6847L288.45 39.5419ZM292.684 50.9062C292.684 57.1606 290.369 62.0038 285.734 65.6415L288.204 68.7882C293.855 64.353 296.684 58.3238 296.684 50.9062H292.684ZM285.74 65.6367C281.052 69.2865 274.583 71.2207 266.119 71.2207V75.2207C275.169 75.2207 282.599 73.151 288.197 68.793L285.74 65.6367ZM266.119 71.2207C257.906 71.2207 251.602 69.3958 247.005 65.9554L244.608 69.1579C250.102 73.2696 257.34 75.2207 266.119 75.2207V71.2207ZM247.017 65.9641C242.509 62.5396 240.152 57.9049 239.944 51.8627L235.947 52.0006C236.194 59.1745 239.078 64.9565 244.597 69.1492L247.017 65.9641ZM348.443 72L346.535 72.5997L346.975 74H348.443V72ZM343.072 54.9102L344.98 54.3105L344.54 52.9102H343.072V54.9102ZM318.316 54.9102V52.9102H316.849L316.408 54.3105L318.316 54.9102ZM312.945 72V74H314.413L314.853 72.5997L312.945 72ZM297.809 72L295.919 71.344L294.997 74H297.809V72ZM322.271 1.54102V-0.458984H320.849L320.382 0.88504L322.271 1.54102ZM339.605 1.54102L341.494 0.883873L341.027 -0.458984H339.605V1.54102ZM364.117 72V74H366.931L366.006 71.3429L364.117 72ZM330.523 15.0176V13.0176H329.054L328.615 14.4201L330.523 15.0176ZM321.49 43.875L319.582 43.2775L318.768 45.875H321.49V43.875ZM339.898 43.875V45.875H342.62L341.807 43.2775L339.898 43.875ZM330.865 15.0176L332.774 14.4201L332.335 13.0176H330.865V15.0176ZM350.351 71.4003L344.98 54.3105L341.164 55.5098L346.535 72.5997L350.351 71.4003ZM343.072 52.9102H318.316V56.9102H343.072V52.9102ZM316.408 54.3105L311.037 71.4003L314.853 72.5997L320.224 55.5098L316.408 54.3105ZM312.945 70H297.809V74H312.945V70ZM299.698 72.656L324.161 2.19699L320.382 0.88504L295.919 71.344L299.698 72.656ZM322.271 3.54102H339.605V-0.458984H322.271V3.54102ZM337.717 2.19816L362.228 72.6571L366.006 71.3429L341.494 0.883873L337.717 2.19816ZM364.117 70H348.443V74H364.117V70ZM328.615 14.4201L319.582 43.2775L323.399 44.4725L332.432 15.615L328.615 14.4201ZM321.49 45.875H339.898V41.875H321.49V45.875ZM341.807 43.2775L332.774 14.4201L328.957 15.615L337.99 44.4725L341.807 43.2775ZM330.865 13.0176H330.523V17.0176H330.865V13.0176ZM384.625 1.54102H386.625V-0.458984H384.625V1.54102ZM388.482 56.5703L387.034 57.9492L387.042 57.9581L387.051 57.967L388.482 56.5703ZM410.26 56.5703L408.82 55.1824L408.819 55.1827L410.26 56.5703ZM414.166 1.54102V-0.458984H412.166V1.54102H414.166ZM428.912 1.54102H430.912V-0.458984H428.912V1.54102ZM420.855 66.043L422.19 67.5323L422.191 67.5318L420.855 66.043ZM377.887 66.043L376.547 67.5278L376.556 67.5363L377.887 66.043ZM369.879 1.54102V-0.458984H367.879V1.54102H369.879ZM382.625 1.54102V45.6328H386.625V1.54102H382.625ZM382.625 45.6328C382.625 50.6113 384.031 54.7941 387.034 57.9492L389.931 55.1914C387.791 52.9429 386.625 49.834 386.625 45.6328H382.625ZM387.051 57.967C390.123 61.1157 394.34 62.5742 399.42 62.5742V58.5742C395.125 58.5742 392.05 57.3635 389.914 55.1737L387.051 57.967ZM399.42 62.5742C404.471 62.5742 408.66 61.1133 411.7 57.9579L408.819 55.1827C406.716 57.3658 403.679 58.5742 399.42 58.5742V62.5742ZM411.7 57.9583C414.74 54.8041 416.166 50.6182 416.166 45.6328H412.166C412.166 49.8272 410.988 52.9328 408.82 55.1824L411.7 57.9583ZM416.166 45.6328V1.54102H412.166V45.6328H416.166ZM414.166 3.54102H428.912V-0.458984H414.166V3.54102ZM426.912 1.54102V47.0977H430.912V1.54102H426.912ZM426.912 47.0977C426.912 54.3948 424.43 60.1497 419.52 64.5541L422.191 67.5318C428.023 62.3008 430.912 55.4255 430.912 47.0977H426.912ZM419.521 64.5537C414.634 68.9339 408.006 71.2207 399.42 71.2207V75.2207C408.737 75.2207 416.4 72.7224 422.19 67.5323L419.521 64.5537ZM399.42 71.2207C390.799 71.2207 384.137 68.9329 379.217 64.5497L376.556 67.5363C382.379 72.7233 390.072 75.2207 399.42 75.2207V71.2207ZM379.227 64.5582C374.347 60.155 371.879 54.399 371.879 47.0977H367.879C367.879 55.4213 370.749 62.2956 376.547 67.5278L379.227 64.5582ZM371.879 47.0977V1.54102H367.879V47.0977H371.879ZM369.879 3.54102H384.625V-0.458984H369.879V3.54102ZM455.426 13.0645V11.0645H453.426V13.0645H455.426ZM455.426 35.5254H453.426V37.5254H455.426V35.5254ZM476.764 32.5469L475.384 31.0991L475.378 31.1046L475.372 31.11L476.764 32.5469ZM476.666 16.1406L475.285 17.5873L475.291 17.5929L475.297 17.5983L476.666 16.1406ZM455.426 46.2188V44.2188H453.426V46.2188H455.426ZM455.426 72V74H457.426V72H455.426ZM440.68 72H438.68V74H440.68V72ZM440.68 1.54102V-0.458984H438.68V1.54102H440.68ZM488.287 7.54688L486.951 9.03508L486.957 9.0402L486.962 9.04528L488.287 7.54688ZM491.607 36.3066L489.916 35.2398L489.913 35.2439L491.607 36.3066ZM482.232 44.0215L481.505 42.1583L479.413 42.9748L480.466 44.9588L482.232 44.0215ZM497.076 72V74H500.401L498.843 71.0627L497.076 72ZM480.377 72L478.595 72.9079L479.151 74H480.377V72ZM467.242 46.2188L469.024 45.3108L468.468 44.2188H467.242V46.2188ZM453.426 13.0645V35.5254H457.426V13.0645H453.426ZM455.426 37.5254H468.121V33.5254H455.426V37.5254ZM468.121 37.5254C472.19 37.5254 475.629 36.4292 478.155 33.9837L475.372 31.11C473.797 32.6359 471.474 33.5254 468.121 33.5254V37.5254ZM478.144 33.9946C480.708 31.5503 481.889 28.2277 481.889 24.2949H477.889C477.889 27.3934 476.986 29.5721 475.384 31.0991L478.144 33.9946ZM481.889 24.2949C481.889 20.4211 480.651 17.1404 478.035 14.6829L475.297 17.5983C476.978 19.1773 477.889 21.3328 477.889 24.2949H481.889ZM478.047 14.6939C475.446 12.211 472.011 11.0645 467.975 11.0645V15.0645C471.23 15.0645 473.589 15.9687 475.285 17.5873L478.047 14.6939ZM467.975 11.0645H455.426V15.0645H467.975V11.0645ZM453.426 46.2188V72H457.426V46.2188H453.426ZM455.426 70H440.68V74H455.426V70ZM442.68 72V1.54102H438.68V72H442.68ZM440.68 3.54102H469.537V-0.458984H440.68V3.54102ZM469.537 3.54102C477.255 3.54102 482.968 5.45937 486.951 9.03508L489.623 6.05867C484.687 1.62657 477.9 -0.458984 469.537 -0.458984V3.54102ZM486.962 9.04528C490.952 12.5723 493.025 17.4708 493.025 24.002H497.025C497.025 16.5357 494.607 10.4642 489.612 6.04847L486.962 9.04528ZM493.025 24.002C493.025 28.2435 491.978 31.9698 489.916 35.2398L493.299 37.3735C495.794 33.4169 497.025 28.9401 497.025 24.002H493.025ZM489.913 35.2439C487.899 38.4544 485.117 40.7491 481.505 42.1583L482.96 45.8846C487.356 44.1689 490.823 41.3204 493.302 37.3694L489.913 35.2439ZM480.466 44.9588L495.309 72.9373L498.843 71.0627L483.999 43.0842L480.466 44.9588ZM497.076 70H480.377V74H497.076V70ZM482.159 71.0921L469.024 45.3108L465.46 47.1267L478.595 72.9079L482.159 71.0921ZM467.242 44.2188H455.426V48.2188H467.242V44.2188Z" fill="url(#paint0_linear_268_514)"/>
<defs>
<linearGradient id="paint0_linear_268_514" x1="206.5" y1="-23" x2="206.5" y2="96" gradientUnits="userSpaceOnUse">
<stop stop-color="white" stop-opacity="0.3"/>
<stop offset="0.760417" stop-color="white" stop-opacity="0"/>
</linearGradient>
</defs>
</svg>
